REM Ripping Tool: trurip

FILE "Top o Nerae! GunBuster Vol. 1 (1992)(Riverhill Soft)(JP).img" BINARY
  TRACK 01 AUDIO
    INDEX 01 00:00:00
  TRACK 02 MODE1/2352
    INDEX 00 00:44:65
    INDEX 01 00:47:65
  TRACK 03 AUDIO
    INDEX 00 13:37:33
    INDEX 01 13:39:33
  TRACK 04 AUDIO
    INDEX 01 15:26:38
  TRACK 05 MODE1/2352
    INDEX 00 17:49:30
    INDEX 01 17:52:30

REM DISC HASHES
REM CRC32 : 9cc9c817
REM MD5   : 0b7875493e4bccf9b5a985c2838bc208
REM SHA1  : 9325a7fd504819c9776f13d24b352468c21a1a95

REM Gap Append Method: Prev [crc32]
REM Trk 01: ccd25d2f
REM Trk 02: b7cad7bc
REM Trk 03: 190dd079
REM Trk 04: 00127b25
REM Trk 05: ec3b1e0b

REM Gap Append Method: Prev [md5]
REM Trk 01: 7938d9aa88f644b60389fa8246f2052e
REM Trk 02: 1262a6d6f82732359a14020b03db4bf1
REM Trk 03: 40195e028d6705fb2ebc2be1e6eef2c0
REM Trk 04: 49641b5facfcfc1329d4802cdcea86a8
REM Trk 05: 471304b15d1e3696cf17bdc89b0942e4

REM Gap Append Method: Prev [sha1]
REM Trk 01: 0fc7f8840f23f43ebfb7041f71427c165f368105
REM Trk 02: e471625980c32bec7b0910f179599232ffa73e6c
REM Trk 03: 44f6f12908bef1858e7696574491f2b34239e2f6
REM Trk 04: bd4648c2808a29260d165a423ec9bd01758a6e2b
REM Trk 05: 420b6974a313f69eef6261327fd89137d2329776

REM Gap Append Method: None [crc32]
REM Trk 01: b979500c
REM Trk 02: d9757896
REM Trk 03: 190dd079
REM Trk 04: da89670e
REM Trk 05: ec3b1e0b
REM Gap 02: 16e86594
REM Gap 03: 7abe247f
REM Gap 05: 5b5891b1

REM Gap Append Method: None [md5]
REM Trk 01: a25a2c129b7100092cc40e9b6e176a63
REM Trk 02: 74d01ab873498292e72d1fdae370bffe
REM Trk 03: 40195e028d6705fb2ebc2be1e6eef2c0
REM Trk 04: ac7904296d79b989d83c0bbd2d86b0f6
REM Trk 05: 471304b15d1e3696cf17bdc89b0942e4
REM Gap 02: fbd314ec9876f082e173fbb5baf092aa
REM Gap 03: 9df204fbc98bb8965081cb30a89715fc
REM Gap 05: 9f2ca389627b002414fdae134a615b41

REM Gap Append Method: None [sha1]
REM Trk 01: 9ac3f1a11d434d186466917f1c7955bf7670c910
REM Trk 02: d00d0e1e106453fe5e4ea32cf266e47409716b6f
REM Trk 03: 44f6f12908bef1858e7696574491f2b34239e2f6
REM Trk 04: 7382df90af8d4450b80a9d236e55d2cb599b2dda
REM Trk 05: 420b6974a313f69eef6261327fd89137d2329776
REM Gap 02: 08a9af7bae10b281a8edaad6e9ea6cd1646d0ce0
REM Gap 03: cbe29e0bd725ef1194f8c47619dd42078e841de2
REM Gap 05: 01249e833850cd23d3995ca53111064451a0398a

REM Gap Append Method: Next [crc32]
REM Trk 01: b979500c
REM Trk 02: ffaa17cd
REM Trk 03: a1cc9d7c
REM Trk 04: da89670e
REM Trk 05: b08d861e

REM Gap Append Method: Next [md5]
REM Trk 01: a25a2c129b7100092cc40e9b6e176a63
REM Trk 02: e82a93eb0fb117f3a12e256c5e456801
REM Trk 03: b367b3ea6dc9d671c3036baf5d2b6d46
REM Trk 04: ac7904296d79b989d83c0bbd2d86b0f6
REM Trk 05: 96b6064a8d936ae6ad3070c32db16a56

REM Gap Append Method: Next [sha1]
REM Trk 01: 9ac3f1a11d434d186466917f1c7955bf7670c910
REM Trk 02: 1931d4203ec6a8d0f32bf922e163b912dea8037d
REM Trk 03: f64b09f71f6ad670127ae88dc88ef15e3f5c1585
REM Trk 04: 7382df90af8d4450b80a9d236e55d2cb599b2dda
REM Trk 05: 0b67494c8ff60692a83fea325799190c95916cb4

